<mxfile host="app.diagrams.net" modified="2022-02-28T18:23:12.929Z" agent="5.0 (Windows NT 10.0; Win64; x64) AppleWebKit/537.36 (KHTML, like Gecko) Chrome/97.0.4692.99 Safari/537.36 OPR/83.0.4254.46" etag="ooOsAaG-4V9-vOuQ4JHS" version="16.1.2" type="github">
  <diagram id="iSvxcfdKmMrP4Wk9ab4f" name="Page-1">
    <mxGraphModel dx="1741" dy="476" grid="1" gridSize="10" guides="1" tooltips="1" connect="1" arrows="1" fold="1" page="1" pageScale="1" pageWidth="827" pageHeight="1169" math="0" shadow="0">
      <root>
        <mxCell id="0" />
        <mxCell id="1" parent="0" />
        <mxCell id="1_wHr5DXfX0PsbuAlHnA-65" style="edgeStyle=orthogonalEdgeStyle;rounded=0;orthogonalLoop=1;jettySize=auto;html=1;exitX=0.5;exitY=0;exitDx=0;exitDy=0;entryX=0;entryY=0.5;entryDx=0;entryDy=0;endArrow=none;endFill=0;" edge="1" parent="1" source="1_wHr5DXfX0PsbuAlHnA-4" target="1_wHr5DXfX0PsbuAlHnA-31">
          <mxGeometry relative="1" as="geometry" />
        </mxCell>
        <mxCell id="1_wHr5DXfX0PsbuAlHnA-67" value="(1,N)" style="edgeLabel;html=1;align=center;verticalAlign=middle;resizable=0;points=[];" vertex="1" connectable="0" parent="1_wHr5DXfX0PsbuAlHnA-65">
          <mxGeometry x="0.8202" y="1" relative="1" as="geometry">
            <mxPoint x="16" y="-7" as="offset" />
          </mxGeometry>
        </mxCell>
        <mxCell id="1_wHr5DXfX0PsbuAlHnA-69" value="(1,N)" style="edgeLabel;html=1;align=center;verticalAlign=middle;resizable=0;points=[];" vertex="1" connectable="0" parent="1_wHr5DXfX0PsbuAlHnA-65">
          <mxGeometry x="-0.8917" y="-5" relative="1" as="geometry">
            <mxPoint x="15" y="11" as="offset" />
          </mxGeometry>
        </mxCell>
        <mxCell id="1_wHr5DXfX0PsbuAlHnA-66" style="edgeStyle=orthogonalEdgeStyle;rounded=0;orthogonalLoop=1;jettySize=auto;html=1;exitX=0.503;exitY=0.962;exitDx=0;exitDy=0;endArrow=none;endFill=0;entryX=0;entryY=0.5;entryDx=0;entryDy=0;exitPerimeter=0;" edge="1" parent="1" source="1_wHr5DXfX0PsbuAlHnA-7" target="1_wHr5DXfX0PsbuAlHnA-18">
          <mxGeometry relative="1" as="geometry">
            <mxPoint x="-150" y="631.1111111111111" as="targetPoint" />
          </mxGeometry>
        </mxCell>
        <mxCell id="1_wHr5DXfX0PsbuAlHnA-4" value="Usuario" style="swimlane;fontStyle=1;align=center;verticalAlign=top;childLayout=stackLayout;horizontal=1;startSize=26;horizontalStack=0;resizeParent=1;resizeParentMax=0;resizeLast=0;collapsible=1;marginBottom=0;" vertex="1" parent="1">
          <mxGeometry x="-240" y="311" width="160" height="164" as="geometry" />
        </mxCell>
        <mxCell id="1_wHr5DXfX0PsbuAlHnA-5" value="-nombre: String&#xa;-apellido: String&#xa;-nomUsuario: String&#xa;-codUsuario: String&#xa;-listaFav: List&#xa;-resenia: Resenia" style="text;strokeColor=none;fillColor=none;align=left;verticalAlign=top;spacingLeft=4;spacingRight=4;overflow=hidden;rotatable=0;points=[[0,0.5],[1,0.5]];portConstraint=eastwest;" vertex="1" parent="1_wHr5DXfX0PsbuAlHnA-4">
          <mxGeometry y="26" width="160" height="104" as="geometry" />
        </mxCell>
        <mxCell id="1_wHr5DXfX0PsbuAlHnA-6" value="" style="line;strokeWidth=1;fillColor=none;align=left;verticalAlign=middle;spacingTop=-1;spacingLeft=3;spacingRight=3;rotatable=0;labelPosition=right;points=[];portConstraint=eastwest;" vertex="1" parent="1_wHr5DXfX0PsbuAlHnA-4">
          <mxGeometry y="130" width="160" height="8" as="geometry" />
        </mxCell>
        <mxCell id="1_wHr5DXfX0PsbuAlHnA-7" value="+ method(type): type" style="text;strokeColor=none;fillColor=none;align=left;verticalAlign=top;spacingLeft=4;spacingRight=4;overflow=hidden;rotatable=0;points=[[0,0.5],[1,0.5]];portConstraint=eastwest;" vertex="1" parent="1_wHr5DXfX0PsbuAlHnA-4">
          <mxGeometry y="138" width="160" height="26" as="geometry" />
        </mxCell>
        <mxCell id="1_wHr5DXfX0PsbuAlHnA-17" value="Lugares" style="swimlane;fontStyle=1;align=center;verticalAlign=top;childLayout=stackLayout;horizontal=1;startSize=26;horizontalStack=0;resizeParent=1;resizeParentMax=0;resizeLast=0;collapsible=1;marginBottom=0;" vertex="1" parent="1">
          <mxGeometry x="100" y="540" width="160" height="174" as="geometry" />
        </mxCell>
        <mxCell id="1_wHr5DXfX0PsbuAlHnA-18" value="- nombre: String&#xa;- tipo: String&#xa;- entrada: Double&#xa;- descripcion: String&#xa;- localizacion: Localizacion&#xa;- horario: Horario&#xa;- resenia: Resenia" style="text;strokeColor=none;fillColor=none;align=left;verticalAlign=top;spacingLeft=4;spacingRight=4;overflow=hidden;rotatable=0;points=[[0,0.5],[1,0.5]];portConstraint=eastwest;" vertex="1" parent="1_wHr5DXfX0PsbuAlHnA-17">
          <mxGeometry y="26" width="160" height="114" as="geometry" />
        </mxCell>
        <mxCell id="1_wHr5DXfX0PsbuAlHnA-19" value="" style="line;strokeWidth=1;fillColor=none;align=left;verticalAlign=middle;spacingTop=-1;spacingLeft=3;spacingRight=3;rotatable=0;labelPosition=right;points=[];portConstraint=eastwest;" vertex="1" parent="1_wHr5DXfX0PsbuAlHnA-17">
          <mxGeometry y="140" width="160" height="8" as="geometry" />
        </mxCell>
        <mxCell id="1_wHr5DXfX0PsbuAlHnA-20" value="+ method(type): type" style="text;strokeColor=none;fillColor=none;align=left;verticalAlign=top;spacingLeft=4;spacingRight=4;overflow=hidden;rotatable=0;points=[[0,0.5],[1,0.5]];portConstraint=eastwest;" vertex="1" parent="1_wHr5DXfX0PsbuAlHnA-17">
          <mxGeometry y="148" width="160" height="26" as="geometry" />
        </mxCell>
        <mxCell id="1_wHr5DXfX0PsbuAlHnA-21" value="Localizacion" style="swimlane;fontStyle=1;align=center;verticalAlign=top;childLayout=stackLayout;horizontal=1;startSize=26;horizontalStack=0;resizeParent=1;resizeParentMax=0;resizeLast=0;collapsible=1;marginBottom=0;" vertex="1" parent="1">
          <mxGeometry x="410" y="250" width="160" height="124" as="geometry" />
        </mxCell>
        <mxCell id="1_wHr5DXfX0PsbuAlHnA-22" value="- direccion: String&#xa;- ciudad: String&#xa;- provincia: String" style="text;strokeColor=none;fillColor=none;align=left;verticalAlign=top;spacingLeft=4;spacingRight=4;overflow=hidden;rotatable=0;points=[[0,0.5],[1,0.5]];portConstraint=eastwest;" vertex="1" parent="1_wHr5DXfX0PsbuAlHnA-21">
          <mxGeometry y="26" width="160" height="64" as="geometry" />
        </mxCell>
        <mxCell id="1_wHr5DXfX0PsbuAlHnA-23" value="" style="line;strokeWidth=1;fillColor=none;align=left;verticalAlign=middle;spacingTop=-1;spacingLeft=3;spacingRight=3;rotatable=0;labelPosition=right;points=[];portConstraint=eastwest;" vertex="1" parent="1_wHr5DXfX0PsbuAlHnA-21">
          <mxGeometry y="90" width="160" height="8" as="geometry" />
        </mxCell>
        <mxCell id="1_wHr5DXfX0PsbuAlHnA-24" value="+ method(type): type" style="text;strokeColor=none;fillColor=none;align=left;verticalAlign=top;spacingLeft=4;spacingRight=4;overflow=hidden;rotatable=0;points=[[0,0.5],[1,0.5]];portConstraint=eastwest;" vertex="1" parent="1_wHr5DXfX0PsbuAlHnA-21">
          <mxGeometry y="98" width="160" height="26" as="geometry" />
        </mxCell>
        <mxCell id="1_wHr5DXfX0PsbuAlHnA-26" value="Horario" style="swimlane;fontStyle=1;align=center;verticalAlign=top;childLayout=stackLayout;horizontal=1;startSize=30;horizontalStack=0;resizeParent=1;resizeParentMax=0;resizeLast=0;collapsible=1;marginBottom=0;" vertex="1" parent="1">
          <mxGeometry x="410" y="410" width="160" height="124" as="geometry" />
        </mxCell>
        <mxCell id="1_wHr5DXfX0PsbuAlHnA-27" value="- apertura: time&#xa;- cierre: time&#xa;- diaLaborables: List" style="text;strokeColor=none;fillColor=none;align=left;verticalAlign=top;spacingLeft=4;spacingRight=4;overflow=hidden;rotatable=0;points=[[0,0.5],[1,0.5]];portConstraint=eastwest;" vertex="1" parent="1_wHr5DXfX0PsbuAlHnA-26">
          <mxGeometry y="30" width="160" height="60" as="geometry" />
        </mxCell>
        <mxCell id="1_wHr5DXfX0PsbuAlHnA-28" value="" style="line;strokeWidth=1;fillColor=none;align=left;verticalAlign=middle;spacingTop=-1;spacingLeft=3;spacingRight=3;rotatable=0;labelPosition=right;points=[];portConstraint=eastwest;" vertex="1" parent="1_wHr5DXfX0PsbuAlHnA-26">
          <mxGeometry y="90" width="160" height="8" as="geometry" />
        </mxCell>
        <mxCell id="1_wHr5DXfX0PsbuAlHnA-29" value="+ method(type): type" style="text;strokeColor=none;fillColor=none;align=left;verticalAlign=top;spacingLeft=4;spacingRight=4;overflow=hidden;rotatable=0;points=[[0,0.5],[1,0.5]];portConstraint=eastwest;" vertex="1" parent="1_wHr5DXfX0PsbuAlHnA-26">
          <mxGeometry y="98" width="160" height="26" as="geometry" />
        </mxCell>
        <mxCell id="1_wHr5DXfX0PsbuAlHnA-30" value="Tienda" style="swimlane;fontStyle=1;align=center;verticalAlign=top;childLayout=stackLayout;horizontal=1;startSize=26;horizontalStack=0;resizeParent=1;resizeParentMax=0;resizeLast=0;collapsible=1;marginBottom=0;" vertex="1" parent="1">
          <mxGeometry x="100" y="90" width="160" height="164" as="geometry" />
        </mxCell>
        <mxCell id="1_wHr5DXfX0PsbuAlHnA-31" value="- nombre: String&#xa;- tipo: String&#xa;- descripcion: String&#xa;- localizacion: Localizacion&#xa;- horario: Horario&#xa;- resenia: Resenia" style="text;strokeColor=none;fillColor=none;align=left;verticalAlign=top;spacingLeft=4;spacingRight=4;overflow=hidden;rotatable=0;points=[[0,0.5],[1,0.5]];portConstraint=eastwest;" vertex="1" parent="1_wHr5DXfX0PsbuAlHnA-30">
          <mxGeometry y="26" width="160" height="104" as="geometry" />
        </mxCell>
        <mxCell id="1_wHr5DXfX0PsbuAlHnA-32" value="" style="line;strokeWidth=1;fillColor=none;align=left;verticalAlign=middle;spacingTop=-1;spacingLeft=3;spacingRight=3;rotatable=0;labelPosition=right;points=[];portConstraint=eastwest;" vertex="1" parent="1_wHr5DXfX0PsbuAlHnA-30">
          <mxGeometry y="130" width="160" height="8" as="geometry" />
        </mxCell>
        <mxCell id="1_wHr5DXfX0PsbuAlHnA-33" value="+ method(type): type" style="text;strokeColor=none;fillColor=none;align=left;verticalAlign=top;spacingLeft=4;spacingRight=4;overflow=hidden;rotatable=0;points=[[0,0.5],[1,0.5]];portConstraint=eastwest;" vertex="1" parent="1_wHr5DXfX0PsbuAlHnA-30">
          <mxGeometry y="138" width="160" height="26" as="geometry" />
        </mxCell>
        <mxCell id="1_wHr5DXfX0PsbuAlHnA-40" value="Resenia" style="swimlane;fontStyle=1;align=center;verticalAlign=top;childLayout=stackLayout;horizontal=1;startSize=26;horizontalStack=0;resizeParent=1;resizeParentMax=0;resizeLast=0;collapsible=1;marginBottom=0;" vertex="1" parent="1">
          <mxGeometry x="780" y="331" width="160" height="124" as="geometry" />
        </mxCell>
        <mxCell id="1_wHr5DXfX0PsbuAlHnA-41" value="- resenia: String&#xa;- valoracion: byte&#xa;- fecha: date" style="text;strokeColor=none;fillColor=none;align=left;verticalAlign=top;spacingLeft=4;spacingRight=4;overflow=hidden;rotatable=0;points=[[0,0.5],[1,0.5]];portConstraint=eastwest;" vertex="1" parent="1_wHr5DXfX0PsbuAlHnA-40">
          <mxGeometry y="26" width="160" height="64" as="geometry" />
        </mxCell>
        <mxCell id="1_wHr5DXfX0PsbuAlHnA-42" value="" style="line;strokeWidth=1;fillColor=none;align=left;verticalAlign=middle;spacingTop=-1;spacingLeft=3;spacingRight=3;rotatable=0;labelPosition=right;points=[];portConstraint=eastwest;" vertex="1" parent="1_wHr5DXfX0PsbuAlHnA-40">
          <mxGeometry y="90" width="160" height="8" as="geometry" />
        </mxCell>
        <mxCell id="1_wHr5DXfX0PsbuAlHnA-43" value="+ method(type): type" style="text;strokeColor=none;fillColor=none;align=left;verticalAlign=top;spacingLeft=4;spacingRight=4;overflow=hidden;rotatable=0;points=[[0,0.5],[1,0.5]];portConstraint=eastwest;" vertex="1" parent="1_wHr5DXfX0PsbuAlHnA-40">
          <mxGeometry y="98" width="160" height="26" as="geometry" />
        </mxCell>
        <mxCell id="1_wHr5DXfX0PsbuAlHnA-63" style="edgeStyle=orthogonalEdgeStyle;rounded=0;orthogonalLoop=1;jettySize=auto;html=1;exitX=0.5;exitY=0;exitDx=0;exitDy=0;entryX=0.501;entryY=1;entryDx=0;entryDy=0;entryPerimeter=0;endArrow=none;endFill=0;" edge="1" parent="1" source="1_wHr5DXfX0PsbuAlHnA-44" target="1_wHr5DXfX0PsbuAlHnA-33">
          <mxGeometry relative="1" as="geometry" />
        </mxCell>
        <mxCell id="1_wHr5DXfX0PsbuAlHnA-44" value="Eventos" style="swimlane;fontStyle=1;align=center;verticalAlign=top;childLayout=stackLayout;horizontal=1;startSize=30;horizontalStack=0;resizeParent=1;resizeParentMax=0;resizeLast=0;collapsible=1;marginBottom=0;" vertex="1" parent="1">
          <mxGeometry x="100" y="320" width="160" height="144" as="geometry" />
        </mxCell>
        <mxCell id="1_wHr5DXfX0PsbuAlHnA-45" value="- lugares: Lugares&#xa;- tienda: Tienda&#xa;- horario: Horario&#xa;- promocion: String" style="text;strokeColor=none;fillColor=none;align=left;verticalAlign=top;spacingLeft=4;spacingRight=4;overflow=hidden;rotatable=0;points=[[0,0.5],[1,0.5]];portConstraint=eastwest;" vertex="1" parent="1_wHr5DXfX0PsbuAlHnA-44">
          <mxGeometry y="30" width="160" height="80" as="geometry" />
        </mxCell>
        <mxCell id="1_wHr5DXfX0PsbuAlHnA-46" value="" style="line;strokeWidth=1;fillColor=none;align=left;verticalAlign=middle;spacingTop=-1;spacingLeft=3;spacingRight=3;rotatable=0;labelPosition=right;points=[];portConstraint=eastwest;" vertex="1" parent="1_wHr5DXfX0PsbuAlHnA-44">
          <mxGeometry y="110" width="160" height="8" as="geometry" />
        </mxCell>
        <mxCell id="1_wHr5DXfX0PsbuAlHnA-47" value="+ method(type): type" style="text;strokeColor=none;fillColor=none;align=left;verticalAlign=top;spacingLeft=4;spacingRight=4;overflow=hidden;rotatable=0;points=[[0,0.5],[1,0.5]];portConstraint=eastwest;" vertex="1" parent="1_wHr5DXfX0PsbuAlHnA-44">
          <mxGeometry y="118" width="160" height="26" as="geometry" />
        </mxCell>
        <mxCell id="1_wHr5DXfX0PsbuAlHnA-51" style="edgeStyle=orthogonalEdgeStyle;rounded=0;orthogonalLoop=1;jettySize=auto;html=1;exitX=1;exitY=0.5;exitDx=0;exitDy=0;entryX=0.501;entryY=1;entryDx=0;entryDy=0;entryPerimeter=0;endArrow=none;endFill=0;" edge="1" parent="1" source="1_wHr5DXfX0PsbuAlHnA-20" target="1_wHr5DXfX0PsbuAlHnA-43">
          <mxGeometry relative="1" as="geometry" />
        </mxCell>
        <mxCell id="1_wHr5DXfX0PsbuAlHnA-79" value="(0,N)" style="edgeLabel;html=1;align=center;verticalAlign=middle;resizable=0;points=[];" vertex="1" connectable="0" parent="1_wHr5DXfX0PsbuAlHnA-51">
          <mxGeometry x="-0.9352" y="-1" relative="1" as="geometry">
            <mxPoint x="-7" y="-12" as="offset" />
          </mxGeometry>
        </mxCell>
        <mxCell id="1_wHr5DXfX0PsbuAlHnA-80" value="(0,N)" style="edgeLabel;html=1;align=center;verticalAlign=middle;resizable=0;points=[];" vertex="1" connectable="0" parent="1_wHr5DXfX0PsbuAlHnA-51">
          <mxGeometry x="0.9638" relative="1" as="geometry">
            <mxPoint x="20" as="offset" />
          </mxGeometry>
        </mxCell>
        <mxCell id="1_wHr5DXfX0PsbuAlHnA-52" style="edgeStyle=orthogonalEdgeStyle;rounded=0;orthogonalLoop=1;jettySize=auto;html=1;exitX=1.01;exitY=-0.06;exitDx=0;exitDy=0;entryX=0.5;entryY=0;entryDx=0;entryDy=0;endArrow=none;endFill=0;exitPerimeter=0;" edge="1" parent="1" source="1_wHr5DXfX0PsbuAlHnA-31" target="1_wHr5DXfX0PsbuAlHnA-40">
          <mxGeometry relative="1" as="geometry" />
        </mxCell>
        <mxCell id="1_wHr5DXfX0PsbuAlHnA-77" value="(0,N)" style="edgeLabel;html=1;align=center;verticalAlign=middle;resizable=0;points=[];" vertex="1" connectable="0" parent="1_wHr5DXfX0PsbuAlHnA-52">
          <mxGeometry x="-0.9447" y="2" relative="1" as="geometry">
            <mxPoint x="-5" y="-8" as="offset" />
          </mxGeometry>
        </mxCell>
        <mxCell id="1_wHr5DXfX0PsbuAlHnA-78" value="(0,N)" style="edgeLabel;html=1;align=center;verticalAlign=middle;resizable=0;points=[];" vertex="1" connectable="0" parent="1_wHr5DXfX0PsbuAlHnA-52">
          <mxGeometry x="0.9521" y="3" relative="1" as="geometry">
            <mxPoint x="17" y="9" as="offset" />
          </mxGeometry>
        </mxCell>
        <mxCell id="1_wHr5DXfX0PsbuAlHnA-53" style="edgeStyle=orthogonalEdgeStyle;rounded=0;orthogonalLoop=1;jettySize=auto;html=1;exitX=1;exitY=0.5;exitDx=0;exitDy=0;entryX=0;entryY=0.5;entryDx=0;entryDy=0;endArrow=none;endFill=0;" edge="1" parent="1" source="1_wHr5DXfX0PsbuAlHnA-45" target="1_wHr5DXfX0PsbuAlHnA-22">
          <mxGeometry relative="1" as="geometry">
            <Array as="points">
              <mxPoint x="260" y="350" />
              <mxPoint x="335" y="350" />
              <mxPoint x="335" y="308" />
            </Array>
          </mxGeometry>
        </mxCell>
        <mxCell id="1_wHr5DXfX0PsbuAlHnA-54" style="edgeStyle=orthogonalEdgeStyle;rounded=0;orthogonalLoop=1;jettySize=auto;html=1;exitX=1;exitY=0.5;exitDx=0;exitDy=0;entryX=0;entryY=0.5;entryDx=0;entryDy=0;endArrow=none;endFill=0;" edge="1" parent="1" source="1_wHr5DXfX0PsbuAlHnA-45" target="1_wHr5DXfX0PsbuAlHnA-27">
          <mxGeometry relative="1" as="geometry">
            <Array as="points">
              <mxPoint x="260" y="430" />
              <mxPoint x="335" y="430" />
              <mxPoint x="335" y="470" />
            </Array>
          </mxGeometry>
        </mxCell>
        <mxCell id="1_wHr5DXfX0PsbuAlHnA-55" style="edgeStyle=orthogonalEdgeStyle;rounded=0;orthogonalLoop=1;jettySize=auto;html=1;exitX=1;exitY=0.5;exitDx=0;exitDy=0;entryX=0;entryY=0.5;entryDx=0;entryDy=0;endArrow=none;endFill=0;" edge="1" parent="1" source="1_wHr5DXfX0PsbuAlHnA-5" target="1_wHr5DXfX0PsbuAlHnA-45">
          <mxGeometry relative="1" as="geometry" />
        </mxCell>
        <mxCell id="1_wHr5DXfX0PsbuAlHnA-56" style="edgeStyle=orthogonalEdgeStyle;rounded=0;orthogonalLoop=1;jettySize=auto;html=1;entryX=0;entryY=0.25;entryDx=0;entryDy=0;endArrow=none;endFill=0;" edge="1" parent="1" target="1_wHr5DXfX0PsbuAlHnA-21">
          <mxGeometry relative="1" as="geometry">
            <mxPoint x="260" y="210" as="sourcePoint" />
            <Array as="points">
              <mxPoint x="260" y="210" />
              <mxPoint x="335" y="210" />
              <mxPoint x="335" y="281" />
            </Array>
          </mxGeometry>
        </mxCell>
        <mxCell id="1_wHr5DXfX0PsbuAlHnA-84" value="(1,N)" style="edgeLabel;html=1;align=center;verticalAlign=middle;resizable=0;points=[];" vertex="1" connectable="0" parent="1_wHr5DXfX0PsbuAlHnA-56">
          <mxGeometry x="0.8053" y="3" relative="1" as="geometry">
            <mxPoint y="-8" as="offset" />
          </mxGeometry>
        </mxCell>
        <mxCell id="1_wHr5DXfX0PsbuAlHnA-85" value="1" style="edgeLabel;html=1;align=center;verticalAlign=middle;resizable=0;points=[];" vertex="1" connectable="0" parent="1_wHr5DXfX0PsbuAlHnA-56">
          <mxGeometry x="-0.8852" y="4" relative="1" as="geometry">
            <mxPoint x="-3" y="-6" as="offset" />
          </mxGeometry>
        </mxCell>
        <mxCell id="1_wHr5DXfX0PsbuAlHnA-57" style="edgeStyle=orthogonalEdgeStyle;rounded=0;orthogonalLoop=1;jettySize=auto;html=1;exitX=1;exitY=0.211;exitDx=0;exitDy=0;entryX=0;entryY=0.5;entryDx=0;entryDy=0;endArrow=none;endFill=0;exitPerimeter=0;" edge="1" parent="1" source="1_wHr5DXfX0PsbuAlHnA-18" target="1_wHr5DXfX0PsbuAlHnA-29">
          <mxGeometry relative="1" as="geometry" />
        </mxCell>
        <mxCell id="1_wHr5DXfX0PsbuAlHnA-58" style="edgeStyle=orthogonalEdgeStyle;rounded=0;orthogonalLoop=1;jettySize=auto;html=1;exitX=1.001;exitY=0.872;exitDx=0;exitDy=0;entryX=1;entryY=0.5;entryDx=0;entryDy=0;endArrow=none;endFill=0;exitPerimeter=0;" edge="1" parent="1" source="1_wHr5DXfX0PsbuAlHnA-18" target="1_wHr5DXfX0PsbuAlHnA-22">
          <mxGeometry relative="1" as="geometry">
            <Array as="points">
              <mxPoint x="260" y="660" />
              <mxPoint x="670" y="660" />
              <mxPoint x="670" y="308" />
            </Array>
          </mxGeometry>
        </mxCell>
        <mxCell id="1_wHr5DXfX0PsbuAlHnA-59" style="edgeStyle=orthogonalEdgeStyle;rounded=0;orthogonalLoop=1;jettySize=auto;html=1;exitX=1;exitY=0.5;exitDx=0;exitDy=0;entryX=1;entryY=0.5;entryDx=0;entryDy=0;endArrow=none;endFill=0;" edge="1" parent="1" source="1_wHr5DXfX0PsbuAlHnA-31" target="1_wHr5DXfX0PsbuAlHnA-27">
          <mxGeometry relative="1" as="geometry">
            <Array as="points">
              <mxPoint x="620" y="168" />
              <mxPoint x="620" y="470" />
            </Array>
          </mxGeometry>
        </mxCell>
        <mxCell id="1_wHr5DXfX0PsbuAlHnA-81" value="(1,N)" style="edgeLabel;html=1;align=center;verticalAlign=middle;resizable=0;points=[];labelBackgroundColor=none;" vertex="1" connectable="0" parent="1_wHr5DXfX0PsbuAlHnA-59">
          <mxGeometry x="-0.9644" y="1" relative="1" as="geometry">
            <mxPoint x="317" y="295" as="offset" />
          </mxGeometry>
        </mxCell>
        <mxCell id="1_wHr5DXfX0PsbuAlHnA-82" value="1" style="edgeLabel;html=1;align=center;verticalAlign=middle;resizable=0;points=[];" vertex="1" connectable="0" parent="1_wHr5DXfX0PsbuAlHnA-59">
          <mxGeometry x="-0.9614" y="3" relative="1" as="geometry">
            <mxPoint x="-4" y="-5" as="offset" />
          </mxGeometry>
        </mxCell>
        <mxCell id="1_wHr5DXfX0PsbuAlHnA-62" style="edgeStyle=orthogonalEdgeStyle;rounded=0;orthogonalLoop=1;jettySize=auto;html=1;exitX=0;exitY=0.5;exitDx=0;exitDy=0;entryX=1;entryY=0.5;entryDx=0;entryDy=0;endArrow=none;endFill=0;" edge="1" parent="1" source="1_wHr5DXfX0PsbuAlHnA-41" target="1_wHr5DXfX0PsbuAlHnA-45">
          <mxGeometry relative="1" as="geometry" />
        </mxCell>
        <mxCell id="1_wHr5DXfX0PsbuAlHnA-64" value="" style="endArrow=none;html=1;rounded=0;entryX=0.5;entryY=1;entryDx=0;entryDy=0;exitX=0.5;exitY=0;exitDx=0;exitDy=0;" edge="1" parent="1" source="1_wHr5DXfX0PsbuAlHnA-17" target="1_wHr5DXfX0PsbuAlHnA-44">
          <mxGeometry width="50" height="50" relative="1" as="geometry">
            <mxPoint x="430" y="450" as="sourcePoint" />
            <mxPoint x="480" y="400" as="targetPoint" />
          </mxGeometry>
        </mxCell>
        <mxCell id="1_wHr5DXfX0PsbuAlHnA-70" value="(1,N)" style="edgeLabel;html=1;align=center;verticalAlign=middle;resizable=0;points=[];labelBackgroundColor=none;" vertex="1" connectable="0" parent="1">
          <mxGeometry x="-130" y="309.6470588235294" as="geometry">
            <mxPoint x="217" y="73" as="offset" />
          </mxGeometry>
        </mxCell>
        <mxCell id="1_wHr5DXfX0PsbuAlHnA-71" value="(1,N)" style="edgeLabel;html=1;align=center;verticalAlign=middle;resizable=0;points=[];labelBackgroundColor=none;" vertex="1" connectable="0" parent="1">
          <mxGeometry x="-120" y="319.6470588235294" as="geometry">
            <mxPoint x="59" y="62" as="offset" />
          </mxGeometry>
        </mxCell>
        <mxCell id="1_wHr5DXfX0PsbuAlHnA-72" value="(1,N)" style="edgeLabel;html=1;align=center;verticalAlign=middle;resizable=0;points=[];" vertex="1" connectable="0" parent="1">
          <mxGeometry x="-110" y="329.6470588235294" as="geometry">
            <mxPoint x="-32" y="160" as="offset" />
          </mxGeometry>
        </mxCell>
        <mxCell id="1_wHr5DXfX0PsbuAlHnA-73" value="(1,N)" style="edgeLabel;html=1;align=center;verticalAlign=middle;resizable=0;points=[];" vertex="1" connectable="0" parent="1">
          <mxGeometry x="-100" y="339.6470588235294" as="geometry">
            <mxPoint x="179" y="269" as="offset" />
          </mxGeometry>
        </mxCell>
        <mxCell id="1_wHr5DXfX0PsbuAlHnA-74" style="edgeStyle=orthogonalEdgeStyle;rounded=0;orthogonalLoop=1;jettySize=auto;html=1;exitX=0;exitY=0.5;exitDx=0;exitDy=0;entryX=1;entryY=0.5;entryDx=0;entryDy=0;endArrow=none;endFill=0;" edge="1" parent="1" source="1_wHr5DXfX0PsbuAlHnA-5" target="1_wHr5DXfX0PsbuAlHnA-41">
          <mxGeometry relative="1" as="geometry">
            <Array as="points">
              <mxPoint x="-310" y="389" />
              <mxPoint x="-310" y="830" />
              <mxPoint x="1020" y="830" />
              <mxPoint x="1020" y="389" />
            </Array>
          </mxGeometry>
        </mxCell>
        <mxCell id="1_wHr5DXfX0PsbuAlHnA-75" value="(0,N)" style="edgeLabel;html=1;align=center;verticalAlign=middle;resizable=0;points=[];" vertex="1" connectable="0" parent="1_wHr5DXfX0PsbuAlHnA-74">
          <mxGeometry x="-0.9804" y="-2" relative="1" as="geometry">
            <mxPoint y="-13" as="offset" />
          </mxGeometry>
        </mxCell>
        <mxCell id="1_wHr5DXfX0PsbuAlHnA-76" value="(0,N)" style="edgeLabel;html=1;align=center;verticalAlign=middle;resizable=0;points=[];" vertex="1" connectable="0" parent="1_wHr5DXfX0PsbuAlHnA-74">
          <mxGeometry x="0.9839" y="3" relative="1" as="geometry">
            <mxPoint y="-12" as="offset" />
          </mxGeometry>
        </mxCell>
        <mxCell id="1_wHr5DXfX0PsbuAlHnA-87" value="(0,N)" style="text;html=1;align=center;verticalAlign=middle;resizable=0;points=[];autosize=1;strokeColor=none;fillColor=none;" vertex="1" parent="1">
          <mxGeometry x="176" y="302" width="40" height="20" as="geometry" />
        </mxCell>
        <mxCell id="1_wHr5DXfX0PsbuAlHnA-88" value="1" style="text;html=1;align=center;verticalAlign=middle;resizable=0;points=[];autosize=1;strokeColor=none;fillColor=none;" vertex="1" parent="1">
          <mxGeometry x="176" y="254" width="20" height="20" as="geometry" />
        </mxCell>
        <mxCell id="1_wHr5DXfX0PsbuAlHnA-89" value="(1,N)" style="edgeLabel;html=1;align=center;verticalAlign=middle;resizable=0;points=[];" vertex="1" connectable="0" parent="1">
          <mxGeometry x="398.94524987497834" y="280.01477452455697" as="geometry">
            <mxPoint x="-8" y="41" as="offset" />
          </mxGeometry>
        </mxCell>
        <mxCell id="1_wHr5DXfX0PsbuAlHnA-90" value="(1,N)" style="text;html=1;align=center;verticalAlign=middle;resizable=0;points=[];autosize=1;strokeColor=none;fillColor=none;" vertex="1" parent="1">
          <mxGeometry x="254" y="331" width="40" height="20" as="geometry" />
        </mxCell>
        <mxCell id="1_wHr5DXfX0PsbuAlHnA-91" value="(0,N)" style="text;html=1;align=center;verticalAlign=middle;resizable=0;points=[];autosize=1;strokeColor=none;fillColor=none;" vertex="1" parent="1">
          <mxGeometry x="740" y="370" width="40" height="20" as="geometry" />
        </mxCell>
        <mxCell id="1_wHr5DXfX0PsbuAlHnA-92" value="(0,N)" style="text;html=1;align=center;verticalAlign=middle;resizable=0;points=[];autosize=1;strokeColor=none;fillColor=none;" vertex="1" parent="1">
          <mxGeometry x="260" y="370" width="40" height="20" as="geometry" />
        </mxCell>
        <mxCell id="1_wHr5DXfX0PsbuAlHnA-93" value="(1,N)" style="text;html=1;align=center;verticalAlign=middle;resizable=0;points=[];autosize=1;strokeColor=none;fillColor=none;" vertex="1" parent="1">
          <mxGeometry x="374" y="449" width="40" height="20" as="geometry" />
        </mxCell>
        <mxCell id="1_wHr5DXfX0PsbuAlHnA-94" value="1" style="text;html=1;align=center;verticalAlign=middle;resizable=0;points=[];autosize=1;strokeColor=none;fillColor=none;" vertex="1" parent="1">
          <mxGeometry x="260" y="410" width="20" height="20" as="geometry" />
        </mxCell>
        <mxCell id="1_wHr5DXfX0PsbuAlHnA-95" value="(0,N)" style="text;html=1;align=center;verticalAlign=middle;resizable=0;points=[];autosize=1;strokeColor=none;fillColor=none;" vertex="1" parent="1">
          <mxGeometry x="175" y="520" width="40" height="20" as="geometry" />
        </mxCell>
        <mxCell id="1_wHr5DXfX0PsbuAlHnA-97" value="(1,N)" style="text;html=1;align=center;verticalAlign=middle;resizable=0;points=[];autosize=1;strokeColor=none;fillColor=none;" vertex="1" parent="1">
          <mxGeometry x="176" y="465" width="40" height="20" as="geometry" />
        </mxCell>
        <mxCell id="1_wHr5DXfX0PsbuAlHnA-98" value="(1,N)" style="text;html=1;align=center;verticalAlign=middle;resizable=0;points=[];autosize=1;strokeColor=none;fillColor=none;" vertex="1" parent="1">
          <mxGeometry x="371" y="500" width="40" height="20" as="geometry" />
        </mxCell>
        <mxCell id="1_wHr5DXfX0PsbuAlHnA-99" value="1" style="text;html=1;align=center;verticalAlign=middle;resizable=0;points=[];autosize=1;strokeColor=none;fillColor=none;" vertex="1" parent="1">
          <mxGeometry x="260" y="569" width="20" height="20" as="geometry" />
        </mxCell>
        <mxCell id="1_wHr5DXfX0PsbuAlHnA-102" value="1" style="text;html=1;align=center;verticalAlign=middle;resizable=0;points=[];autosize=1;strokeColor=none;fillColor=none;" vertex="1" parent="1">
          <mxGeometry x="570" y="289.65" width="20" height="20" as="geometry" />
        </mxCell>
        <mxCell id="1_wHr5DXfX0PsbuAlHnA-103" value="1" style="text;html=1;align=center;verticalAlign=middle;resizable=0;points=[];autosize=1;strokeColor=none;fillColor=none;" vertex="1" parent="1">
          <mxGeometry x="261" y="640" width="20" height="20" as="geometry" />
        </mxCell>
      </root>
    </mxGraphModel>
  </diagram>
</mxfile>
